<mxfile host="Electron" modified="2023-04-28T14:41:29.910Z" agent="Mozilla/5.0 (Windows NT 10.0; Win64; x64) AppleWebKit/537.36 (KHTML, like Gecko) draw.io/21.2.1 Chrome/112.0.5615.87 Electron/24.1.2 Safari/537.36" etag="gxu4XQi3dg6_6emj-wsd" version="21.2.1" type="device">
  <diagram name="페이지-1" id="7c5yMHleIHvrgwJYEkmg">
    <mxGraphModel dx="1773" dy="1435" grid="1" gridSize="10" guides="1" tooltips="1" connect="1" arrows="1" fold="1" page="0" pageScale="1" pageWidth="827" pageHeight="1169" math="0" shadow="0">
      <root>
        <mxCell id="0" />
        <mxCell id="1" parent="0" />
        <mxCell id="bN1uxvzpIatst6Yo2BMo-17" value="" style="rounded=1;whiteSpace=wrap;html=1;dashed=1;" vertex="1" parent="1">
          <mxGeometry x="500" y="147.5" width="400" height="380" as="geometry" />
        </mxCell>
        <mxCell id="bN1uxvzpIatst6Yo2BMo-10" value="" style="rounded=1;whiteSpace=wrap;html=1;dashed=1;" vertex="1" parent="1">
          <mxGeometry x="-20" y="150" width="400" height="380" as="geometry" />
        </mxCell>
        <mxCell id="bN1uxvzpIatst6Yo2BMo-2" value="&amp;lt;Process.python&amp;gt;&lt;br&gt;&lt;b&gt;Main&lt;/b&gt;" style="rounded=1;whiteSpace=wrap;html=1;absoluteArcSize=1;arcSize=14;strokeWidth=2;" vertex="1" parent="1">
          <mxGeometry x="120" y="60" width="120" height="130" as="geometry" />
        </mxCell>
        <mxCell id="bN1uxvzpIatst6Yo2BMo-3" value="&amp;lt;Process.python&amp;gt;&lt;br&gt;(32bit 가상환경)&lt;br&gt;&lt;b&gt;XingManager&lt;/b&gt;" style="rounded=1;whiteSpace=wrap;html=1;absoluteArcSize=1;arcSize=14;strokeWidth=2;" vertex="1" parent="1">
          <mxGeometry x="640" y="60" width="130" height="125" as="geometry" />
        </mxCell>
        <mxCell id="bN1uxvzpIatst6Yo2BMo-5" value="Xing API" style="html=1;dashed=0;whiteSpace=wrap;" vertex="1" parent="1">
          <mxGeometry x="870" y="97.5" width="100" height="50" as="geometry" />
        </mxCell>
        <mxCell id="bN1uxvzpIatst6Yo2BMo-6" value="생성&lt;br&gt;(아나콘다 가상환경 적용)" style="endArrow=classic;html=1;rounded=0;exitX=1;exitY=0.5;exitDx=0;exitDy=0;entryX=0;entryY=0.5;entryDx=0;entryDy=0;" edge="1" parent="1" source="bN1uxvzpIatst6Yo2BMo-2" target="bN1uxvzpIatst6Yo2BMo-3">
          <mxGeometry width="50" height="50" relative="1" as="geometry">
            <mxPoint x="530" y="250" as="sourcePoint" />
            <mxPoint x="580" y="200" as="targetPoint" />
          </mxGeometry>
        </mxCell>
        <mxCell id="bN1uxvzpIatst6Yo2BMo-7" value="&amp;lt;Object&amp;gt;&lt;br&gt;Data Manager" style="ellipse;whiteSpace=wrap;html=1;aspect=fixed;" vertex="1" parent="1">
          <mxGeometry x="40" y="280" width="80" height="80" as="geometry" />
        </mxCell>
        <mxCell id="bN1uxvzpIatst6Yo2BMo-11" value="DB" style="strokeWidth=2;html=1;shape=mxgraph.flowchart.database;whiteSpace=wrap;" vertex="1" parent="1">
          <mxGeometry x="30" y="570" width="100" height="120" as="geometry" />
        </mxCell>
        <mxCell id="bN1uxvzpIatst6Yo2BMo-12" value="" style="endArrow=classic;startArrow=classic;html=1;rounded=0;entryX=0.5;entryY=1;entryDx=0;entryDy=0;exitX=0.5;exitY=0;exitDx=0;exitDy=0;exitPerimeter=0;" edge="1" parent="1" source="bN1uxvzpIatst6Yo2BMo-11" target="bN1uxvzpIatst6Yo2BMo-7">
          <mxGeometry width="50" height="50" relative="1" as="geometry">
            <mxPoint x="130" y="400" as="sourcePoint" />
            <mxPoint x="180" y="350" as="targetPoint" />
          </mxGeometry>
        </mxCell>
        <mxCell id="bN1uxvzpIatst6Yo2BMo-21" value="sqlite3" style="edgeLabel;html=1;align=center;verticalAlign=middle;resizable=0;points=[];" vertex="1" connectable="0" parent="bN1uxvzpIatst6Yo2BMo-12">
          <mxGeometry x="0.1667" relative="1" as="geometry">
            <mxPoint x="-1" as="offset" />
          </mxGeometry>
        </mxCell>
        <mxCell id="bN1uxvzpIatst6Yo2BMo-13" value="" style="endArrow=classic;startArrow=classic;html=1;rounded=0;entryX=0;entryY=0.5;entryDx=0;entryDy=0;exitX=1;exitY=0.5;exitDx=0;exitDy=0;" edge="1" parent="1" source="bN1uxvzpIatst6Yo2BMo-3" target="bN1uxvzpIatst6Yo2BMo-5">
          <mxGeometry width="50" height="50" relative="1" as="geometry">
            <mxPoint x="630" y="330" as="sourcePoint" />
            <mxPoint x="680" y="280" as="targetPoint" />
          </mxGeometry>
        </mxCell>
        <mxCell id="bN1uxvzpIatst6Yo2BMo-14" value="증권사 API서버" style="image;aspect=fixed;perimeter=ellipsePerimeter;html=1;align=center;shadow=0;dashed=0;spacingTop=3;image=img/lib/active_directory/generic_server.svg;" vertex="1" parent="1">
          <mxGeometry x="1150" y="40" width="95.2" height="170" as="geometry" />
        </mxCell>
        <mxCell id="bN1uxvzpIatst6Yo2BMo-15" value="" style="endArrow=none;html=1;rounded=0;dashed=1;dashPattern=12 12;" edge="1" parent="1">
          <mxGeometry width="50" height="50" relative="1" as="geometry">
            <mxPoint x="1050" y="540" as="sourcePoint" />
            <mxPoint x="1050" y="-170" as="targetPoint" />
          </mxGeometry>
        </mxCell>
        <mxCell id="bN1uxvzpIatst6Yo2BMo-16" value="네트워크 통신" style="endArrow=classic;startArrow=classic;html=1;rounded=0;entryX=-0.005;entryY=0.581;entryDx=0;entryDy=0;entryPerimeter=0;exitX=1;exitY=0.5;exitDx=0;exitDy=0;dashed=1;dashPattern=12 12;" edge="1" parent="1" source="bN1uxvzpIatst6Yo2BMo-5" target="bN1uxvzpIatst6Yo2BMo-14">
          <mxGeometry width="50" height="50" relative="1" as="geometry">
            <mxPoint x="660" y="280" as="sourcePoint" />
            <mxPoint x="710" y="230" as="targetPoint" />
          </mxGeometry>
        </mxCell>
        <mxCell id="bN1uxvzpIatst6Yo2BMo-18" value="&amp;lt;Object&amp;gt;&lt;br&gt;IPC Manager" style="ellipse;whiteSpace=wrap;html=1;aspect=fixed;" vertex="1" parent="1">
          <mxGeometry x="240" y="280" width="80" height="80" as="geometry" />
        </mxCell>
        <mxCell id="bN1uxvzpIatst6Yo2BMo-19" value="&amp;lt;Object&amp;gt;&lt;br&gt;IPC Manager" style="ellipse;whiteSpace=wrap;html=1;aspect=fixed;" vertex="1" parent="1">
          <mxGeometry x="550" y="280" width="80" height="80" as="geometry" />
        </mxCell>
        <mxCell id="bN1uxvzpIatst6Yo2BMo-20" value="multiprocessing.managers" style="endArrow=classic;startArrow=classic;html=1;rounded=0;exitX=1;exitY=0.5;exitDx=0;exitDy=0;dashed=1;dashPattern=8 8;" edge="1" parent="1" source="bN1uxvzpIatst6Yo2BMo-18" target="bN1uxvzpIatst6Yo2BMo-19">
          <mxGeometry width="50" height="50" relative="1" as="geometry">
            <mxPoint x="580" y="290" as="sourcePoint" />
            <mxPoint x="630" y="240" as="targetPoint" />
          </mxGeometry>
        </mxCell>
      </root>
    </mxGraphModel>
  </diagram>
</mxfile>
